<?xml version="1.0" standalone="no"?>
<!DOCTYPE svg PUBLIC "-//W3C//DTD SVG 20010904//EN"
 "http://www.w3.org/TR/2001/REC-SVG-20010904/DTD/svg10.dtd">
<svg version="1.0" xmlns="http://www.w3.org/2000/svg"
 width="549.000000pt" height="553.000000pt" viewBox="0 0 549.000000 553.000000"
 preserveAspectRatio="xMidYMid meet">
<metadata>
Created by potrace 1.10, written by Peter Selinger 2001-2011
</metadata>
<g transform="translate(0.000000,553.000000) scale(0.050000,-0.050000)"
fill="#d813b4" stroke="none">
<path d="M1124 9645 c414 -890 3160 -6297 3176 -6255 32 83 -2 181 -47 136 -7
-7 -13 2 -13 21 0 18 -9 33 -20 33 -11 0 -20 18 -20 40 0 22 -9 40 -20 40 -11
0 -20 11 -20 23 0 32 -163 360 -195 394 -14 14 -20 34 -14 45 6 10 4 18 -5 18
-9 0 -28 29 -43 65 -81 192 -112 255 -127 255 -9 0 -16 15 -16 32 0 37 -80
191 -109 212 -11 8 -14 20 -6 28 8 7 -8 40 -36 72 -27 33 -49 70 -49 83 0 12
-36 91 -80 173 -44 83 -85 164 -91 180 -7 17 -20 44 -30 60 -45 72 -246 491
-243 505 2 8 -5 15 -16 15 -11 0 -20 17 -20 38 0 21 -8 42 -18 45 -21 8 -302
572 -302 607 0 12 -20 44 -44 70 -25 26 -74 119 -109 207 -36 88 -79 177 -96
197 -17 20 -31 44 -31 54 0 9 -42 92 -93 185 -51 92 -105 199 -121 237 -15 39
-51 113 -78 165 -28 52 -44 95 -36 95 8 0 1 16 -16 35 -17 19 -51 78 -77 130
-25 52 -53 95 -63 95 -9 0 -16 14 -16 31 0 17 -45 118 -99 223 -55 106 -94
202 -87 214 7 12 5 15 -4 8 -8 -8 -34 23 -57 70 -22 46 -49 90 -59 96 -9 7
-16 19 -14 26 5 20 -132 297 -233 474 -48 84 -87 167 -87 185 0 18 -11 33 -23
33 -13 0 -18 6 -10 13 7 8 -1 29 -18 49 -18 19 -34 47 -36 61 -2 15 -11 37
-19 50 -8 13 -6 46 5 74 14 38 12 52 -12 61 -43 17 -112 15 -103 -3z"/>
<path d="M2924 6500 c870 -1739 1584 -3158 1587 -3155 2 3 714 1425 1582 3160
l1578 3155 -3164 0 -3164 0 1581 -3160z m2121 3025 c-47 -4 -123 -4 -170 0
-47 5 -8 8 85 8 94 0 132 -3 85 -8z m960 0 c-47 -4 -123 -4 -170 0 -47 5 -8 8
85 8 94 0 132 -3 85 -8z m640 0 c-47 -4 -123 -4 -170 0 -47 5 -8 8 85 8 94 0
132 -3 85 -8z m799 -68 c-4 -13 -24 -48 -45 -78 -21 -29 -32 -60 -24 -67 7 -7
-7 -19 -33 -26 -26 -6 -36 -17 -24 -25 15 -9 13 -26 -7 -52 -29 -38 -30 -38
-30 5 -1 24 -10 49 -22 57 -12 7 -18 23 -13 36 9 28 -20 57 -108 111 -75 46
-5107 68 -5224 23 -49 -18 -165 -121 -137 -121 8 0 14 -18 14 -40 0 -22 -8
-40 -18 -40 -11 0 -5 -16 13 -36 30 -33 30 -35 -8 -35 -34 0 -40 10 -33 55 9
65 0 70 -37 21 -26 -34 -41 -4 -30 61 4 22 -53 77 -71 70 -8 -3 -21 18 -29 48
-8 30 -6 57 4 60 65 22 5867 -5 5862 -27z m-1601 -2757 c-730 -1457 -1329
-2652 -1331 -2654 -1 -2 -601 1191 -1332 2650 l-1330 2654 2660 0 2660 0
-1327 -2650z m-3953 2298 c-4 -21 1 -38 11 -38 11 0 19 -13 19 -30 0 -16 -9
-30 -20 -30 -11 0 -18 7 -16 15 8 29 -46 105 -75 105 -16 0 -29 7 -29 17 0 9
26 12 58 7 45 -6 57 -17 52 -46z m5270 -36 c0 -21 -15 -43 -33 -50 -47 -19
-63 7 -22 37 19 14 29 31 21 38 -7 7 -2 13 11 13 13 0 23 -17 23 -38z m-2688
-5022 c6 0 5 8 -1 19 -7 11 24 15 73 11 49 -5 74 -1 59 8 -21 13 -19 19 7 29
59 23 70 14 46 -37 -12 -27 -34 -50 -49 -50 -15 0 -27 -13 -27 -29 0 -25 -67
-163 -92 -190 -5 -4 -3 23 3 60 9 52 7 62 -9 39 -18 -25 -21 -22 -22 15 0 25
-7 45 -15 45 -19 0 -65 98 -65 138 0 22 11 18 41 -14 22 -24 45 -44 51 -44z"/>
<path d="M2140 9167 c0 -21 8 -48 18 -58 9 -10 28 -53 41 -94 13 -41 33 -75
45 -75 11 0 16 -12 10 -26 -5 -15 6 -37 26 -49 20 -13 43 -53 51 -89 7 -36 23
-77 34 -91 11 -14 12 -25 2 -25 -9 0 -8 -7 3 -15 20 -15 60 -82 116 -195 16
-33 53 -107 82 -165 29 -58 52 -118 52 -135 0 -16 9 -30 20 -30 11 0 18 -7 16
-15 -3 -8 11 -39 31 -69 20 -30 38 -67 40 -83 3 -16 14 -41 26 -56 22 -27 94
-178 158 -332 19 -47 43 -85 52 -85 9 0 15 -7 13 -15 -3 -8 6 -34 19 -57 13
-24 18 -48 11 -55 -7 -7 -2 -13 11 -13 13 0 23 -13 23 -30 0 -16 9 -30 20 -30
11 0 20 -17 20 -39 0 -21 9 -44 20 -51 26 -16 100 -178 100 -219 0 -17 7 -31
15 -31 8 0 25 -20 36 -45 12 -25 66 -130 121 -235 54 -104 121 -242 148 -305
27 -63 56 -115 65 -115 8 0 16 -16 16 -35 1 -19 19 -62 40 -95 34 -56 115
-219 119 -240 0 -5 100 -203 221 -440 121 -236 214 -430 206 -430 -7 0 1 -16
17 -35 17 -19 43 -69 58 -110 14 -41 33 -75 42 -75 9 0 16 -18 16 -40 0 -22 9
-40 20 -40 11 0 20 -14 20 -31 0 -16 14 -35 30 -42 17 -6 30 -23 30 -37 0 -14
14 -36 30 -50 52 -43 48 -35 -1145 2350 -1248 2496 -1165 2334 -1165 2277z"/>
<path d="M5692 6859 c-635 -1266 -1151 -2312 -1146 -2325 5 -13 20 0 34 30 14
30 36 49 48 42 12 -7 16 -6 9 2 -8 9 17 66 55 129 37 62 68 124 68 138 0 14 9
25 20 25 11 0 18 7 15 15 -6 21 90 245 105 245 7 0 13 11 14 25 0 14 29 72 65
130 35 58 66 116 69 130 4 31 229 476 256 510 12 14 15 25 8 25 -11 0 33 91
105 220 9 17 51 102 93 190 43 88 82 165 88 170 20 17 162 315 162 338 0 12
10 22 21 22 12 0 17 7 12 16 -6 9 19 74 56 145 154 301 228 442 246 465 10 13
34 69 54 124 20 55 49 114 64 132 15 17 27 42 27 55 0 12 8 23 19 23 16 0 48
70 46 100 0 6 18 46 41 90 23 44 40 91 37 105 -3 14 3 25 12 25 9 0 66 101
126 225 60 124 116 228 124 232 8 3 10 15 4 25 -6 10 -1 18 11 18 12 0 16 10
9 22 -8 12 -5 28 5 35 11 7 59 94 106 193 47 99 89 187 94 195 5 8 0 15 -10
15 -9 0 -537 -1036 -1172 -2301z"/>
<path d="M4484 4450 c-35 -75 -30 -90 26 -90 55 0 62 27 23 96 l-26 46 -23
-52z"/>
<path d="M7766 9646 c-43 -8 -43 -9 -4 -48 43 -43 37 -102 -15 -153 -15 -15
-33 -52 -40 -81 -7 -30 -21 -59 -31 -66 -10 -7 -21 -25 -23 -40 -2 -16 -19
-50 -38 -78 -19 -27 -35 -64 -35 -83 0 -19 -14 -43 -31 -53 -17 -9 -34 -30
-37 -45 -9 -43 -49 -145 -72 -179 -10 -16 -57 -106 -104 -200 -46 -93 -102
-197 -125 -230 -22 -33 -42 -67 -43 -75 -2 -8 -5 -19 -8 -25 -3 -5 -7 -17 -9
-25 -10 -34 -39 -96 -50 -105 -24 -21 -121 -221 -121 -250 0 -16 -8 -30 -18
-30 -11 0 -25 -27 -32 -60 -7 -33 -21 -60 -32 -60 -10 0 -18 -12 -18 -28 0
-15 -13 -38 -30 -52 -16 -13 -26 -31 -21 -39 5 -7 -9 -43 -30 -78 -21 -35 -39
-76 -39 -92 0 -15 -7 -31 -15 -34 -8 -4 -118 -214 -245 -467 -126 -253 -238
-467 -250 -475 -11 -8 -13 -15 -4 -15 8 0 -13 -52 -48 -115 -80 -146 -97 -178
-199 -385 -191 -390 -363 -732 -380 -760 -44 -70 -219 -431 -219 -452 0 -12
-18 -45 -40 -73 -22 -28 -40 -66 -40 -84 0 -18 -9 -28 -20 -21 -12 7 -19 6
-17 -4 4 -18 -24 -91 -42 -106 -20 -18 -81 -161 -81 -191 0 -16 -9 -29 -19
-29 -11 0 -30 -36 -43 -79 -13 -44 -32 -75 -42 -68 -10 6 -17 -1 -14 -16 2
-15 -10 -58 -28 -97 -18 -38 -33 -61 -33 -50 -1 25 -101 -170 -101 -197 0 -11
-16 -38 -35 -60 -22 -25 -24 -34 -6 -23 32 19 -71 -124 -123 -170 -32 -28 -32
-35 -3 -100 22 -48 35 -61 42 -40 6 17 716 1441 1578 3165 1672 3345 1582
3150 1433 3121z"/>
</g>
</svg>
